<?xml version="1.0" encoding="UTF-8"?>
<svg id="Layer_1" data-name="Layer 1" xmlns="http://www.w3.org/2000/svg" viewBox="0 0 1302.14 1143.82">
  <defs>
    <style>
      .cls-1 {
        fill: #f7931e;
      }

      .cls-2 {
        fill: #1469a8;
      }

      .cls-3 {
        fill: #4f4f4f;
      }
    </style>
  </defs>
  <g>
    <g>
      <path class="cls-2" d="m760.28,158.72h-207.67c-.15,1.79-1.25,3.41-3.58,3.88-12.73,2.58-28.52,10.34-32.85,23.45-1.07,3.24-4.3,4.01-6.79,3.11-1.34,1.93-2.39,4.18-3.52,6.14-1.7,2.95-3.52,5.7-3.21,9.25.29,3.3,1.98,6.48,3.27,9.48,5.15,12.04,8.13,26.67,19.61,34.65.73.51,1.26,1.11,1.62,1.77,1.34-.79,3.04-.97,4.8-.03,5.27,2.82,9.79,5.06,15.95,5.19,3.94.08,5.46,3.85,4.58,6.74.02,0,.04,0,.07,0h207.72c51.73,0,93.53,43.29,91.1,95.55-2.29,49.14-44.8,86.86-93.99,86.86h-317.12c-28.61,0-51.8,23.19-51.8,51.8s23.19,51.8,51.8,51.8h315.61c106.15,0,196.11-83.06,199.13-189.16,3.13-109.99-85.43-200.46-194.73-200.46Z"/>
      <path class="cls-1" d="m745.19,404.14h-198.93c-106.15,0-196.11-83.06-199.13-189.16-3.13-109.99,85.43-200.46,194.73-200.46h320.01c28.61,0,51.8,23.19,51.8,51.8h0c0,28.61-23.19,51.8-51.8,51.8h-317.11c-49.19,0-91.7,37.72-94,86.85-2.44,52.26,39.37,95.55,91.1,95.55h203.33c28.61,0,51.8,23.19,51.8,51.8h0c0,28.61-23.19,51.8-51.8,51.8Z"/>
    </g>
    <circle class="cls-2" cx="745.18" cy="352.24" r="51.8"/>
    <circle class="cls-1" cx="552.54" cy="210.53" r="51.81"/>
  </g>
  <g>
    <g>
      <path d="m31.93,939.44c-6.52-3.51-11.54-11.04-11.54-21.07,0-13.55,10.54-24.58,24.58-24.58,5.02,0,9.53,1.5,13.05,3.51,25.59,17.06,52.18,25.59,76.26,25.59,26.09,0,41.14-11.04,41.14-28.6v-1c0-20.57-28.1-27.6-59.2-37.13-39.14-11.04-82.79-27.09-82.79-77.77v-1c0-50.17,41.64-80.78,94.33-80.78,28.1,0,57.7,8.03,83.29,21.57,8.53,4.52,14.55,12.54,14.55,23.08,0,14.05-11.04,24.58-25.09,24.58-5.02,0-8.03-1-12.04-3.01-21.57-11.04-43.65-18.06-62.22-18.06-23.58,0-37.13,11.04-37.13,26.09v1c0,19.57,28.6,27.6,59.71,37.63,38.64,12.04,82.28,29.6,82.28,77.27v1c0,55.69-43.15,83.29-98.34,83.29-33.62,0-70.24-10.54-100.85-31.61Z"/>
      <path class="cls-1" d="m267.24,629.87c0-18.06,15.05-29.6,34.62-29.6s34.62,11.54,34.62,29.6v3.01c0,18.06-15.05,30.1-34.62,30.1s-34.62-12.04-34.62-30.1v-3.01Z"/>
      <path d="m273.43,728.71c0-17.06,13.05-30.61,30.1-30.61s30.61,13.55,30.61,30.61v209.72c0,17.06-13.55,30.1-30.61,30.1s-30.1-13.05-30.1-30.1v-209.72Z"/>
      <path d="m497.04,971.05h-3.01c-16.56,0-27.6-10.54-34.62-26.59l-88.3-202.2c-1.51-4.52-3.51-9.53-3.51-15.05,0-15.05,13.55-29.1,30.1-29.1s25.09,9.53,30.1,22.08l68.23,175.61,69.24-176.61c4.52-10.54,12.54-21.07,28.6-21.07s29.6,12.54,29.6,29.1c0,5.52-2.01,11.54-3.51,14.55l-88.3,202.7c-7.02,15.55-18.06,26.59-34.62,26.59Z"/>
      <path d="m890.9,938.43c0,16.56-13.55,30.1-30.6,30.1s-30.61-13.05-30.61-30.1v-13.55c-17.06,25.09-41.64,46.66-82.78,46.66-59.71,0-94.33-40.14-94.33-101.85v-140.99c0-17.06,13.55-30.61,30.1-30.61s30.6,13.55,30.6,30.61v122.92c0,41.14,20.57,64.22,56.7,64.22s59.71-24.08,59.71-65.23v-121.92c0-17.06,13.55-30.61,30.61-30.61s30.6,13.55,30.6,30.61v209.72Z"/>
      <path d="m945.09,627.36c0-16.56,13.05-30.1,30.1-30.1s30.61,13.55,30.61,30.1v311.07c0,17.06-13.55,30.1-30.61,30.1s-30.1-13.05-30.1-30.1v-311.07Z"/>
      <path d="m1042.43,889.76v-1c0-57.2,44.65-85.29,109.38-85.29,29.6,0,50.68,4.52,71.25,11.04v-6.52c0-37.63-23.08-57.7-65.73-57.7-23.08,0-42.15,4.01-58.7,10.54-3.51,1-6.52,1.5-9.53,1.5-14.05,0-25.59-11.04-25.59-25.09,0-11.04,7.53-20.57,16.56-24.08,25.09-9.53,50.68-15.55,85.3-15.55,39.64,0,69.24,10.54,87.8,29.6,19.57,19.07,28.6,47.16,28.6,81.78v130.45c0,16.56-13.05,29.1-29.6,29.1-17.56,0-29.6-12.04-29.6-25.59v-10.03c-18.06,21.57-45.66,38.64-86.3,38.64-49.67,0-93.82-28.6-93.82-81.78Zm181.63-19.07v-18.06c-15.55-6.02-36.12-10.54-60.21-10.54-39.14,0-62.22,16.56-62.22,44.15v1c0,25.59,22.58,40.14,51.68,40.14,40.14,0,70.74-23.08,70.74-56.7Z"/>
    </g>
    <g>
      <path class="cls-3" d="m286.09,1042.44c4.85,0,9.11,1.11,12.77,3.34,3.66,2.23,6.48,5.04,8.48,8.43l-7.38,5.68c-1.73-2.53-3.76-4.49-6.08-5.88-2.33-1.4-4.92-2.09-7.78-2.09-2.66,0-4.99.65-6.98,1.94-2,1.3-2.99,3.31-2.99,6.03,0,1.26.23,2.34.7,3.24.46.9,1.1,1.7,1.9,2.39s1.76,1.35,2.89,1.94c1.13.6,2.36,1.2,3.69,1.79l7.38,3.39c2.46,1.13,4.67,2.33,6.63,3.59,1.96,1.26,3.62,2.64,4.99,4.14,1.36,1.5,2.39,3.14,3.09,4.94.7,1.8,1.05,3.82,1.05,6.08,0,2.93-.57,5.57-1.7,7.93-1.13,2.36-2.68,4.36-4.64,5.98-1.96,1.63-4.29,2.89-6.98,3.79-2.69.9-5.6,1.35-8.73,1.35-5.52,0-10.41-1.28-14.66-3.84-4.26-2.56-7.65-6.03-10.17-10.42l7.48-5.68c.93,1.4,1.98,2.73,3.14,3.99,1.16,1.26,2.44,2.38,3.84,3.34,1.4.96,2.94,1.73,4.64,2.29,1.7.57,3.57.85,5.64.85,3.39,0,6.13-.81,8.23-2.44,2.09-1.63,3.14-3.87,3.14-6.73,0-1.26-.23-2.38-.7-3.34-.47-.96-1.13-1.81-1.99-2.54-.86-.73-1.88-1.41-3.04-2.05-1.16-.63-2.48-1.28-3.94-1.94l-7.28-3.39c-2.13-1-4.12-2.06-5.98-3.19-1.86-1.13-3.49-2.43-4.89-3.89-1.4-1.46-2.49-3.11-3.29-4.94-.8-1.83-1.2-3.91-1.2-6.23,0-2.72.55-5.19,1.65-7.38s2.59-4.07,4.49-5.64c1.9-1.56,4.09-2.76,6.58-3.59s5.17-1.25,8.03-1.25Z"/>
      <path class="cls-3" d="m424.92,1043.53l-25.63,66.92h-3.49l-19.65-46.68-19.65,46.68h-3.59l-25.63-66.92h11.67l16.36,44.48,18.95-45.58h3.69l18.95,45.58,16.46-44.48h11.57Z"/>
      <path class="cls-3" d="m457.34,1109.36h-10.57v-65.83h10.57v65.83Z"/>
      <path class="cls-3" d="m532.14,1053.01h-22.24v56.35h-10.57v-56.35h-22.14v-9.47h54.95v9.47Z"/>
      <path class="cls-3" d="m580.61,1042.44c6.25,0,11.82,1.38,16.71,4.14,4.89,2.76,8.73,6.43,11.52,11.02l-7.98,5.88c-2.33-3.59-5.17-6.38-8.53-8.38-3.36-2-7.23-2.99-11.62-2.99-3.39,0-6.53.62-9.42,1.85-2.89,1.23-5.4,2.93-7.53,5.09-2.13,2.16-3.79,4.72-4.99,7.68-1.2,2.96-1.8,6.2-1.8,9.72s.6,6.77,1.8,9.73c1.2,2.96,2.86,5.52,4.99,7.68,2.13,2.16,4.64,3.86,7.53,5.09,2.89,1.23,6.03,1.84,9.42,1.84,4.39,0,8.26-1,11.62-2.99,3.36-2,6.2-4.79,8.53-8.38l7.98,5.88c-2.79,4.59-6.63,8.26-11.52,11.02-4.89,2.76-10.46,4.14-16.71,4.14-4.79,0-9.29-.86-13.51-2.59-4.22-1.73-7.9-4.1-11.02-7.13-3.13-3.02-5.59-6.62-7.38-10.77-1.79-4.15-2.69-8.66-2.69-13.51s.9-9.26,2.69-13.41c1.8-4.16,4.25-7.76,7.38-10.82,3.12-3.06,6.8-5.45,11.02-7.18,4.22-1.73,8.73-2.59,13.51-2.59Z"/>
      <path class="cls-3" d="m685.73,1109.36h-10.57v-30.12h-33.11v30.12h-10.57v-65.83h10.57v26.23h33.11v-26.23h10.57v65.83Z"/>
      <path class="cls-3" d="m755.65,1053.01h-32.71v16.85h24.64v9.18h-24.64v20.85h33.91v9.47h-44.48v-65.83h43.29v9.47Z"/>
      <path class="cls-3" d="m814.49,1045.93c4.39,1.6,8.14,3.84,11.27,6.73,3.12,2.89,5.54,6.35,7.23,10.37,1.7,4.02,2.54,8.46,2.54,13.31s-.85,9.19-2.54,13.22c-1.7,4.02-4.11,7.51-7.23,10.47-3.13,2.96-6.88,5.25-11.27,6.88-4.39,1.63-9.31,2.44-14.76,2.44h-20.65v-65.83h20.65c5.45,0,10.37.8,14.76,2.39Zm-24.83,7.28v46.68h9.97c3.86,0,7.33-.58,10.42-1.74,3.09-1.16,5.72-2.79,7.88-4.88,2.16-2.09,3.82-4.58,4.99-7.46,1.16-2.89,1.75-6.02,1.75-9.4s-.58-6.7-1.75-9.55c-1.16-2.85-2.83-5.29-4.99-7.31-2.16-2.02-4.79-3.58-7.88-4.68-3.09-1.09-6.57-1.64-10.42-1.64h-9.97Z"/>
      <path class="cls-3" d="m926.49,1042.44c4.79,0,9.28.86,13.47,2.59,4.19,1.73,7.84,4.12,10.97,7.18,3.12,3.06,5.6,6.67,7.43,10.82,1.83,4.16,2.74,8.63,2.74,13.41s-.92,9.36-2.74,13.51c-1.83,4.16-4.3,7.75-7.43,10.77-3.13,3.03-6.78,5.4-10.97,7.13-4.19,1.73-8.68,2.59-13.47,2.59s-9.29-.86-13.51-2.59c-4.22-1.73-7.88-4.12-10.97-7.18-3.09-3.06-5.53-6.66-7.33-10.82-1.8-4.15-2.69-8.63-2.69-13.41s.9-9.26,2.69-13.41c1.79-4.16,4.25-7.76,7.38-10.82,3.12-3.06,6.78-5.45,10.97-7.18,4.19-1.73,8.68-2.59,13.46-2.59Zm.1,9.67c-3.39,0-6.53.62-9.42,1.85-2.89,1.23-5.39,2.91-7.48,5.04-2.09,2.13-3.74,4.69-4.94,7.68-1.2,2.99-1.79,6.22-1.79,9.67s.6,6.78,1.79,9.77c1.2,2.99,2.84,5.57,4.94,7.73,2.09,2.16,4.59,3.86,7.48,5.09,2.89,1.23,6.03,1.84,9.42,1.84s6.52-.61,9.38-1.84c2.86-1.23,5.35-2.93,7.48-5.09,2.13-2.16,3.79-4.74,4.99-7.73,1.2-2.99,1.79-6.25,1.79-9.77s-.6-6.66-1.79-9.62c-1.2-2.96-2.86-5.52-4.99-7.68-2.13-2.16-4.62-3.86-7.48-5.09-2.86-1.23-5.98-1.85-9.38-1.85Z"/>
      <path class="cls-3" d="m1037.99,1043.53v66.92h-3.59l-40.09-45.58v44.48h-10.57v-66.92h3.69l39.99,45.48v-44.38h10.57Z"/>
    </g>
  </g>
</svg>