<?xml version="1.0" encoding="utf-8"?>
<!-- Generator: Adobe Illustrator 27.2.0, SVG Export Plug-In . SVG Version: 6.00 Build 0)  -->
<svg version="1.1" id="Layer_1" xmlns="http://www.w3.org/2000/svg" xmlns:xlink="http://www.w3.org/1999/xlink" x="0px" y="0px"
	 viewBox="0 0 1302.14 1143.82" style="enable-background:new 0 0 1302.14 1143.82;" xml:space="preserve">
<style type="text/css">
	.st0{fill:#A8A8A8;}
	.st1{fill:#FFFFFF;}
	.st2{fill:#1469A8;}
	.st3{fill:#F7931E;}
</style>
<g>
	<g>
		<g>
			<g>
				<g>
					<path class="st2" d="M877.99,316.94H446.48c-0.3,3.71-2.59,7.08-7.44,8.06c-26.45,5.35-59.26,21.48-68.25,48.73
						c-2.22,6.74-8.94,8.34-14.11,6.45c-2.78,4.02-4.96,8.69-7.3,12.75c-3.54,6.13-7.32,11.84-6.67,19.21
						c0.61,6.86,4.12,13.47,6.79,19.69c10.71,25.02,16.9,55.42,40.75,72c1.52,1.05,2.61,2.31,3.36,3.67
						c2.78-1.64,6.31-2.02,9.97-0.06c10.96,5.85,20.34,10.51,33.14,10.77c8.18,0.17,11.35,8,9.52,14c0.05,0,0.09,0,0.14,0h431.62
						c107.48,0,194.35,89.95,189.29,198.53c-4.76,102.1-93.09,180.48-195.3,180.48H213.05c-59.45,0-107.64,48.19-107.64,107.64
						c0,59.45,48.19,107.64,107.64,107.64h655.8c220.55,0,407.49-172.59,413.76-393.05C1289.1,504.94,1105.09,316.94,877.99,316.94z
						"/>
				</g>
			</g>
		</g>
		<g>
			<g>
				<g>
					<path class="st3" d="M846.64,826.87H433.29c-220.55,0-407.49-172.59-413.76-393.05C13.04,205.29,197.05,17.29,424.15,17.29
						h664.94c59.45,0,107.64,48.19,107.64,107.64v0c0,59.45-48.19,107.64-107.64,107.64H430.18
						c-102.21,0-190.54,78.37-195.31,180.47c-5.08,108.58,81.8,198.55,189.29,198.55h422.49c59.45,0,107.64,48.19,107.64,107.64l0,0
						C954.28,778.68,906.09,826.87,846.64,826.87z"/>
				</g>
			</g>
		</g>
	</g>
	<g>
		<g>
			<circle class="st2" cx="848.68" cy="719.05" r="107.63"/>
		</g>
	</g>
	<g>
		<g>
			<circle class="st3" cx="446.33" cy="424.59" r="107.64"/>
		</g>
	</g>
</g>
</svg>
