<?xml version="1.0" encoding="UTF-8"?>
<svg id="Layer_1" data-name="Layer 1" xmlns="http://www.w3.org/2000/svg" viewBox="0 0 1579.28 454.16">
  <defs>
    <style>
      .cls-1 {
        fill: #fff;
      }

      .cls-2 {
        fill: #a8a8a8;
      }
    </style>
  </defs>
  <g>
    <g>
      <path class="cls-1" d="m567.9,290.73c-5.19-2.79-9.17-8.77-9.17-16.75,0-10.77,8.38-19.54,19.54-19.54,3.99,0,7.58,1.2,10.37,2.79,20.34,13.56,41.48,20.34,60.62,20.34,20.74,0,32.7-8.77,32.7-22.73v-.8c0-16.35-22.33-21.94-47.06-29.51-31.11-8.77-65.81-21.54-65.81-61.82v-.8c0-39.88,33.1-64.21,74.98-64.21,22.33,0,45.86,6.38,66.2,17.15,6.78,3.59,11.57,9.97,11.57,18.35,0,11.17-8.77,19.54-19.94,19.54-3.99,0-6.38-.8-9.57-2.39-17.15-8.77-34.7-14.36-49.45-14.36-18.74,0-29.51,8.77-29.51,20.74v.8c0,15.55,22.73,21.94,47.46,29.91,30.71,9.57,65.41,23.53,65.41,61.42v.8c0,44.27-34.3,66.21-78.17,66.21-26.72,0-55.84-8.38-80.16-25.13Z"/>
      <path class="cls-1" d="m754.95,44.66c0-14.36,11.96-23.53,27.52-23.53s27.52,9.17,27.52,23.53v2.39c0,14.36-11.96,23.93-27.52,23.93s-27.52-9.57-27.52-23.93v-2.39Z"/>
      <path class="cls-1" d="m759.86,123.23c0-13.56,10.37-24.33,23.93-24.33s24.33,10.77,24.33,24.33v166.71c0,13.56-10.77,23.93-24.33,23.93s-23.93-10.37-23.93-23.93V123.23Z"/>
      <path class="cls-1" d="m937.6,315.86h-2.39c-13.16,0-21.94-8.38-27.52-21.14l-70.19-160.72c-1.2-3.59-2.79-7.58-2.79-11.96,0-11.96,10.77-23.13,23.93-23.13s19.94,7.58,23.93,17.55l54.24,139.59,55.04-140.38c3.59-8.38,9.97-16.75,22.73-16.75s23.53,9.97,23.53,23.13c0,4.39-1.59,9.17-2.79,11.57l-70.19,161.12c-5.58,12.36-14.36,21.14-27.52,21.14Z"/>
      <path class="cls-1" d="m1250.68,289.94c0,13.16-10.77,23.93-24.33,23.93s-24.33-10.37-24.33-23.93v-10.77c-13.56,19.94-33.1,37.09-65.8,37.09-47.46,0-74.98-31.91-74.98-80.96v-112.07c0-13.56,10.77-24.33,23.93-24.33s24.33,10.77,24.33,24.33v97.71c0,32.7,16.35,51.05,45.07,51.05s47.46-19.14,47.46-51.85v-96.91c0-13.56,10.77-24.33,24.33-24.33s24.33,10.77,24.33,24.33v166.71Z"/>
      <path class="cls-1" d="m1293.75,42.67c0-13.16,10.37-23.93,23.93-23.93s24.33,10.77,24.33,23.93v247.27c0,13.56-10.77,23.93-24.33,23.93s-23.93-10.37-23.93-23.93V42.67Z"/>
      <path class="cls-1" d="m1371.12,251.25v-.8c0-45.47,35.49-67.8,86.94-67.8,23.53,0,40.28,3.59,56.63,8.77v-5.18c0-29.91-18.35-45.86-52.25-45.86-18.34,0-33.5,3.19-46.66,8.38-2.79.8-5.18,1.2-7.58,1.2-11.17,0-20.34-8.77-20.34-19.94,0-8.77,5.98-16.35,13.16-19.14,19.94-7.58,40.28-12.36,67.8-12.36,31.51,0,55.04,8.38,69.79,23.53,15.55,15.16,22.73,37.49,22.73,65.01v103.69c0,13.16-10.37,23.13-23.53,23.13-13.96,0-23.53-9.57-23.53-20.34v-7.98c-14.36,17.15-36.29,30.71-68.6,30.71-39.48,0-74.58-22.73-74.58-65.01Zm144.37-15.16v-14.36c-12.36-4.79-28.71-8.38-47.86-8.38-31.11,0-49.45,13.16-49.45,35.1v.8c0,20.34,17.95,31.9,41.08,31.9,31.91,0,56.23-18.34,56.23-45.07Z"/>
    </g>
    <g>
      <path class="cls-2" d="m335.35,434.32H90.29c-22.22,0-40.22-18.01-40.22-40.22h0c0-22.22,18.01-40.22,40.22-40.22h246.23c38.2,0,71.2-29.29,72.98-67.44,1.89-40.58-30.57-74.19-70.73-74.19h-161.29c-22.22,0-40.22-18.01-40.22-40.22h0c0-22.22,18.01-40.22,40.22-40.22h161.29c84.86,0,153.63,70.25,151.2,155.65-2.34,82.38-72.2,146.88-154.61,146.88Z"/>
      <path class="cls-1" d="m327.05,322.35h-154.46c-82.42,0-152.27-64.49-154.61-146.88C15.55,90.07,84.31,19.82,169.18,19.82h248.48c22.22,0,40.22,18.01,40.22,40.22h0c0,22.22-18.01,40.22-40.22,40.22h-246.22c-38.19,0-71.2,29.28-72.99,67.44-1.9,40.58,30.57,74.19,70.73,74.19h157.88c22.22,0,40.22,18.01,40.22,40.22h0c0,22.22-18.01,40.22-40.22,40.22Z"/>
    </g>
    <circle class="cls-2" cx="327.04" cy="282.05" r="40.22"/>
    <circle class="cls-1" cx="176.46" cy="171.95" r="40.22"/>
  </g>
  <g>
    <path class="cls-1" d="m769.93,381.35c3.86,0,7.24.89,10.15,2.66,2.91,1.77,5.15,4,6.74,6.7l-5.87,4.52c-1.38-2.01-2.99-3.57-4.84-4.68-1.85-1.11-3.91-1.67-6.18-1.67-2.11,0-3.96.52-5.55,1.55-1.59,1.03-2.38,2.63-2.38,4.8,0,1,.18,1.86.55,2.58.37.71.87,1.35,1.51,1.9s1.4,1.07,2.3,1.55c.9.48,1.88.95,2.93,1.43l5.87,2.7c1.95.9,3.71,1.85,5.27,2.85,1.56,1,2.88,2.1,3.96,3.29,1.08,1.19,1.9,2.5,2.46,3.92.56,1.43.83,3.04.83,4.84,0,2.33-.45,4.43-1.35,6.3-.9,1.88-2.13,3.46-3.69,4.76-1.56,1.3-3.41,2.3-5.55,3.01-2.14.71-4.45,1.07-6.94,1.07-4.39,0-8.27-1.02-11.65-3.05-3.38-2.03-6.08-4.8-8.09-8.29l5.95-4.52c.74,1.11,1.57,2.17,2.5,3.17.92,1,1.94,1.89,3.05,2.66,1.11.77,2.34,1.38,3.69,1.82,1.35.45,2.84.67,4.48.67,2.7,0,4.88-.65,6.54-1.94,1.67-1.29,2.5-3.08,2.5-5.35,0-1-.19-1.89-.56-2.66-.37-.77-.9-1.44-1.59-2.02-.69-.58-1.49-1.12-2.42-1.63-.93-.5-1.97-1.02-3.13-1.55l-5.79-2.7c-1.69-.79-3.28-1.64-4.76-2.54-1.48-.9-2.77-1.93-3.88-3.09-1.11-1.16-1.98-2.47-2.62-3.92-.63-1.45-.95-3.1-.95-4.96,0-2.17.44-4.12,1.31-5.87s2.06-3.24,3.57-4.48c1.51-1.24,3.25-2.19,5.23-2.85s4.11-.99,6.38-.99Z"/>
    <path class="cls-1" d="m880.28,382.22l-20.37,53.2h-2.77l-15.62-37.1-15.62,37.1h-2.85l-20.37-53.2h9.28l13,35.36,15.06-36.23h2.93l15.06,36.23,13.08-35.36h9.2Z"/>
    <path class="cls-1" d="m906.05,434.55h-8.4v-52.32h8.4v52.32Z"/>
    <path class="cls-1" d="m965.51,389.75h-17.68v44.79h-8.4v-44.79h-17.6v-7.53h43.68v7.53Z"/>
    <path class="cls-1" d="m1004.03,381.35c4.97,0,9.39,1.1,13.28,3.29,3.88,2.19,6.94,5.11,9.16,8.76l-6.34,4.68c-1.85-2.85-4.11-5.07-6.78-6.66-2.67-1.59-5.75-2.38-9.24-2.38-2.7,0-5.19.49-7.49,1.47-2.3.98-4.29,2.33-5.99,4.04-1.69,1.72-3.01,3.75-3.96,6.1-.95,2.35-1.43,4.93-1.43,7.73s.48,5.38,1.43,7.73c.95,2.35,2.27,4.39,3.96,6.1,1.69,1.72,3.69,3.07,5.99,4.04,2.3.98,4.8,1.47,7.49,1.47,3.49,0,6.57-.79,9.24-2.38,2.67-1.59,4.93-3.81,6.78-6.66l6.34,4.68c-2.22,3.65-5.27,6.57-9.16,8.76-3.88,2.19-8.31,3.29-13.28,3.29-3.81,0-7.39-.69-10.74-2.06-3.36-1.37-6.28-3.26-8.76-5.67-2.48-2.4-4.44-5.26-5.87-8.56-1.43-3.3-2.14-6.88-2.14-10.74s.71-7.36,2.14-10.66c1.43-3.3,3.38-6.17,5.87-8.6,2.48-2.43,5.4-4.33,8.76-5.71,3.36-1.37,6.94-2.06,10.74-2.06Z"/>
    <path class="cls-1" d="m1087.59,434.55h-8.4v-23.94h-26.32v23.94h-8.4v-52.32h8.4v20.85h26.32v-20.85h8.4v52.32Z"/>
    <path class="cls-1" d="m1143.17,389.75h-26v13.4h19.58v7.29h-19.58v16.57h26.95v7.53h-35.36v-52.32h34.41v7.53Z"/>
    <path class="cls-1" d="m1189.94,384.12c3.49,1.27,6.47,3.05,8.96,5.35,2.48,2.3,4.4,5.05,5.75,8.25,1.35,3.2,2.02,6.73,2.02,10.58s-.67,7.31-2.02,10.5c-1.35,3.2-3.26,5.97-5.75,8.32-2.48,2.35-5.47,4.18-8.96,5.47-3.49,1.3-7.4,1.94-11.73,1.94h-16.41v-52.32h16.41c4.33,0,8.24.63,11.73,1.9Zm-19.74,5.79v37.1h7.93c3.06,0,5.83-.46,8.28-1.38s4.54-2.21,6.26-3.88c1.72-1.66,3.04-3.64,3.96-5.93.92-2.29,1.39-4.79,1.39-7.48s-.46-5.33-1.39-7.59c-.93-2.27-2.25-4.21-3.96-5.81-1.72-1.61-3.81-2.85-6.26-3.72-2.46-.87-5.22-1.31-8.28-1.31h-7.93Z"/>
    <path class="cls-1" d="m1278.97,381.35c3.81,0,7.37.69,10.7,2.06,3.33,1.38,6.24,3.28,8.72,5.71,2.48,2.43,4.45,5.3,5.91,8.6,1.45,3.3,2.18,6.86,2.18,10.66s-.73,7.44-2.18,10.74c-1.45,3.3-3.42,6.16-5.91,8.56-2.49,2.41-5.39,4.29-8.72,5.67-3.33,1.37-6.9,2.06-10.7,2.06s-7.39-.69-10.74-2.06c-3.36-1.37-6.26-3.28-8.72-5.71-2.46-2.43-4.4-5.3-5.83-8.6-1.43-3.3-2.14-6.86-2.14-10.66s.71-7.36,2.14-10.66c1.43-3.3,3.38-6.17,5.87-8.6,2.48-2.43,5.39-4.33,8.72-5.71,3.33-1.37,6.9-2.06,10.7-2.06Zm.08,7.69c-2.7,0-5.19.49-7.49,1.47-2.3.98-4.28,2.31-5.95,4-1.66,1.69-2.97,3.73-3.92,6.1-.95,2.38-1.43,4.94-1.43,7.69s.48,5.39,1.43,7.77c.95,2.38,2.26,4.43,3.92,6.14,1.67,1.72,3.65,3.07,5.95,4.04,2.3.98,4.8,1.47,7.49,1.47s5.18-.49,7.45-1.47c2.27-.98,4.25-2.33,5.95-4.04,1.69-1.72,3.01-3.77,3.96-6.14.95-2.38,1.43-4.97,1.43-7.77s-.48-5.3-1.43-7.65c-.95-2.35-2.27-4.39-3.96-6.1-1.69-1.72-3.67-3.06-5.95-4.04-2.27-.98-4.76-1.47-7.45-1.47Z"/>
    <path class="cls-1" d="m1367.6,382.22v53.2h-2.85l-31.87-36.23v35.36h-8.4v-53.2h2.93l31.79,36.15v-35.28h8.4Z"/>
  </g>
</svg>