<?xml version="1.0" encoding="utf-8"?>
<!-- Generator: Adobe Illustrator 27.2.0, SVG Export Plug-In . SVG Version: 6.00 Build 0)  -->
<svg version="1.1" id="Layer_1" xmlns="http://www.w3.org/2000/svg" xmlns:xlink="http://www.w3.org/1999/xlink" x="0px" y="0px"
	 viewBox="0 0 1302.14 1143.82" style="enable-background:new 0 0 1302.14 1143.82;" xml:space="preserve">
<style type="text/css">
	.st0{fill:#A8A8A8;}
	.st1{fill:#FFFFFF;}
	.st2{fill:#1469A8;}
	.st3{fill:#F7931E;}
</style>
<g>
	<g>
		<g>
			<g>
				<g>
					<path d="M868.85,1126.53h-655.8c-59.45,0-107.64-48.19-107.64-107.64l0,0c0-59.45,48.19-107.64,107.64-107.64h658.93
						c102.21,0,190.54-78.38,195.3-180.48c5.06-108.58-81.81-198.53-189.29-198.53H446.37c-59.45,0-107.64-48.19-107.64-107.64l0,0
						c0-59.45,48.19-107.64,107.64-107.64h431.62c227.1,0,411.12,187.99,404.62,416.53
						C1276.34,953.94,1089.4,1126.53,868.85,1126.53z"/>
				</g>
			</g>
		</g>
		<g>
			<g>
				<g>
					<path class="st0" d="M846.64,826.87H433.29c-220.55,0-407.49-172.59-413.76-393.05C13.04,205.29,197.05,17.29,424.15,17.29
						h664.94c59.45,0,107.64,48.19,107.64,107.64v0c0,59.45-48.19,107.64-107.64,107.64H430.18
						c-102.21,0-190.54,78.37-195.31,180.47c-5.08,108.58,81.8,198.55,189.29,198.55h422.49c59.45,0,107.64,48.19,107.64,107.64l0,0
						C954.28,778.68,906.09,826.87,846.64,826.87z"/>
				</g>
			</g>
		</g>
	</g>
	<g>
		<g>
			<circle cx="846.6" cy="719.13" r="107.55"/>
		</g>
	</g>
	<g>
		<g>
			<circle class="st0" cx="444.25" cy="424.41" r="107.63"/>
		</g>
	</g>
</g>
</svg>
